# xmcd
#
# Track frame offsets:
#	150
#	25509
#	48698
#	72161
#	90450
#	112176
#	132570
#	154935
#
# Disc length: 2385 seconds
#
# Revision: 0
# Processed by: cddbd v1.5.1PL0 Copyright (c) Steve Scherf et al.
# Submitted via: dBpowerAMP V4.0
#
DISCID=6b094f08
DTITLE=Whispers - Just Gets Better With Time
DYEAR=1987
DGENRE=R&B
TTITLE0=I Want You
TTITLE1=Special F-X
TTITLE2=Rock Steady
TTITLE3=No Pain, No Gain
TTITLE4=In The Mood
TTITLE5=Just Gets Better With Time
TTITLE6=Love's Calling
TTITLE7=Give It To Me
EXTD=
EXTT0=
EXTT1=
EXTT2=
EXTT3=
EXTT4=
EXTT5=
EXTT6=
EXTT7=
PLAYORDER=
